<svg xmlns="http://www.w3.org/2000/svg" viewBox="0 0 800 800" width="800" height="800">
  <defs>
    <radialGradient id="gp" cx="50%" cy="40%" r="60%">
      <stop offset="0%" stop-color="#ffffff"/>
      <stop offset="50%" stop-color="#cfcfcf"/>
      <stop offset="100%" stop-color="#7a7a7a"/>
    </radialGradient>
    <linearGradient id="shine2" x1="0%" y1="0%" x2="100%" y2="100%">
      <stop offset="0%" stop-color="#ffffff" stop-opacity="0.6"/>
      <stop offset="100%" stop-color="#ffffff" stop-opacity="0"/>
    </linearGradient>
    <filter id="softGlow2" x="-20%" y="-20%" width="140%" height="140%">
      <feGaussianBlur stdDeviation="6"/>
    </filter>
  </defs>
  <g transform="translate(400,420)">
    <!-- petals -->
    <g fill="url(#gp)">
      <path d="M0,-260 C60,-230 90,-140 60,-40 C30,60 -20,80 -70,90 C-110,100 -150,70 -170,20 C-190,-30 -170,-90 -130,-150 C-90,-210 -40,-250 0,-260 Z" transform="rotate(-15)"/>
      <path d="M0,-260 C60,-230 90,-140 60,-40 C30,60 -20,80 -70,90 C-110,100 -150,70 -170,20 C-190,-30 -170,-90 -130,-150 C-90,-210 -40,-250 0,-260 Z" transform="rotate(25)"/>
      <path d="M0,-260 C60,-230 90,-140 60,-40 C30,60 -20,80 -70,90 C-110,100 -150,70 -170,20 C-190,-30 -170,-90 -130,-150 C-90,-210 -40,-250 0,-260 Z" transform="rotate(65)"/>
      <path d="M0,-260 C60,-230 90,-140 60,-40 C30,60 -20,80 -70,90 C-110,100 -150,70 -170,20 C-190,-30 -170,-90 -130,-150 C-90,-210 -40,-250 0,-260 Z" transform="rotate(105)"/>
    </g>
    <!-- center -->
    <circle r="46" fill="#4a4a4a" />
    <circle r="46" fill="url(#shine2)" filter="url(#softGlow2)"/>
  </g>
</svg>
